<svg width="560" height="560" viewBox="0 0 560 560" fill="none" xmlns="http://www.w3.org/2000/svg">
<g filter="url(#filter0_d_2_7257)">
<circle cx="288.5" cy="297.5" r="175.5" fill="#E8FBFF"/>
<circle cx="124" cy="179" r="11" fill="#E8FBFF"/>
<circle cx="203.5" cy="108.5" r="20.5" fill="#E8FBFF"/>
<circle cx="127.5" cy="410.5" r="19.5" fill="#E8FBFF"/>
<circle cx="476.5" cy="391.5" r="19.5" fill="#E8FBFF"/>
<circle cx="438.5" cy="413.5" r="9.5" fill="#E8FBFF"/>
<path d="M284.525 143.537C283.946 143.414 283.946 142.586 284.525 142.463L293.291 140.599C293.502 140.554 293.668 140.389 293.713 140.178L295.601 131.474C295.726 130.897 296.549 130.897 296.674 131.474L298.561 140.178C298.607 140.389 298.772 140.554 298.984 140.599L307.749 142.463C308.329 142.586 308.329 143.414 307.749 143.537L298.984 145.401C298.772 145.446 298.607 145.611 298.561 145.822L296.674 154.526C296.549 155.103 295.726 155.103 295.601 154.526L293.713 145.822C293.668 145.611 293.502 145.446 293.291 145.401L284.525 143.537Z" fill="#566CEC"/>
<path d="M82.2229 229.622C82.4467 228.565 83.9558 228.565 84.1796 229.622L87.5224 245.415C87.6038 245.799 87.9034 246.101 88.2878 246.185L103.917 249.589C104.967 249.818 104.967 251.315 103.917 251.544L88.2878 254.948C87.9034 255.032 87.6038 255.334 87.5224 255.718L84.1796 271.511C83.9558 272.568 82.4467 272.568 82.2229 271.511L78.8801 255.718C78.7986 255.334 78.499 255.032 78.1146 254.948L62.4851 251.544C61.4356 251.315 61.4356 249.818 62.4851 249.589L78.1146 246.185C78.499 246.101 78.7986 245.799 78.8801 245.415L82.2229 229.622Z" fill="#566CEC"/>
<path d="M445.345 279.622C445.568 278.565 447.078 278.565 447.301 279.622L449.251 288.835C449.333 289.22 449.633 289.521 450.017 289.605L459.161 291.597C460.21 291.826 460.21 293.323 459.161 293.551L450.017 295.543C449.633 295.627 449.333 295.928 449.251 296.313L447.301 305.526C447.078 306.583 445.568 306.583 445.345 305.526L443.395 296.313C443.313 295.928 443.014 295.627 442.629 295.543L433.485 293.551C432.436 293.323 432.436 291.826 433.485 291.597L442.629 289.605C443.014 289.521 443.313 289.22 443.395 288.835L445.345 279.622Z" fill="#566CEC"/>
<path d="M485.659 331.331L488.721 345.798L502.982 348.905L488.721 352.011L485.659 366.479L482.597 352.011L468.336 348.905L482.597 345.798L485.659 331.331Z" fill="white"/>
<path d="M421.5 155L212 376L236 470.5L252.5 391L421.5 155Z" fill="#36B2EF"/>
<path d="M211 375L235.5 472.5L251 391.5" stroke="#566CEC" stroke-width="4"/>
<path d="M235 470.5L298 411" stroke="#566CEC" stroke-width="4"/>
<path d="M421.5 155L252 390.5L385 450L421.5 155Z" fill="#E8FBFF" stroke="#566CEC" stroke-width="4"/>
<path d="M421.5 153L108 331L211 375L421.5 153Z" fill="#E8FBFF" stroke="#566CEC" stroke-width="4"/>
<path d="M301 413.019L252.707 392L235 473L301 413.019Z" fill="#566CEC"/>
</g>
<defs>
<filter id="filter0_d_2_7257" x="-4" y="0" width="568" height="568" filterUnits="userSpaceOnUse" color-interpolation-filters="sRGB">
<feFlood flood-opacity="0" result="BackgroundImageFix"/>
<feColorMatrix in="SourceAlpha" type="matrix" values="0 0 0 0 0 0 0 0 0 0 0 0 0 0 0 0 0 0 127 0" result="hardAlpha"/>
<feOffset dy="4"/>
<feGaussianBlur stdDeviation="2"/>
<feComposite in2="hardAlpha" operator="out"/>
<feColorMatrix type="matrix" values="0 0 0 0 0 0 0 0 0 0 0 0 0 0 0 0 0 0 0.25 0"/>
<feBlend mode="normal" in2="BackgroundImageFix" result="effect1_dropShadow_2_7257"/>
<feBlend mode="normal" in="SourceGraphic" in2="effect1_dropShadow_2_7257" result="shape"/>
</filter>
</defs>
</svg>
